<?xml version="1.0" encoding="UTF-8"?>
<svg width="20px" height="20px" viewBox="0 0 20 20" version="1.1" xmlns="http://www.w3.org/2000/svg" xmlns:xlink="http://www.w3.org/1999/xlink">
    <!-- Generator: Sketch 42 (36781) - http://www.bohemiancoding.com/sketch -->
    <title>Icon-Fork</title>
    <desc>Created with Sketch.</desc>
    <defs>
        <rect id="path-1" x="0" y="0" width="20" height="20" rx="4"></rect>
        <mask id="mask-2" maskContentUnits="userSpaceOnUse" maskUnits="objectBoundingBox" x="0" y="0" width="20" height="20" fill="white">
            <use xlink:href="#path-1"></use>
        </mask>
    </defs>
    <g id="Design-NG" stroke="none" stroke-width="1" fill="none" fill-rule="evenodd">
        <g id="Monitoring-LS-Pipeline-NG" transform="translate(-1154.000000, -486.000000)">
            <g id="FLOW" transform="translate(501.000000, 175.000000)">
                <g id="box-icon-fork" transform="translate(439.000000, 305.000000)">
                    <g id="Icon-Fork" transform="translate(214.000000, 6.000000)">
                        <use id="BG" stroke="#C8C8C8" mask="url(#mask-2)" stroke-width="2" fill="#FFFFFF" xlink:href="#path-1"></use>
                        <path d="M12.6928854,6.74281937 C12.1028515,6.74281937 11.6111464,6.27452881 11.6111464,5.71259177 C11.6111464,5.15065472 12.1028515,4.68236416 12.6928854,4.68236416 C13.2829498,4.68236416 13.7746244,5.15065472 13.7746244,5.71259177 C13.7746244,6.27452881 13.2829498,6.74281937 12.6928854,6.74281937 M9.99553966,15.3057637 C9.40553627,15.3057637 8.91380068,14.8375022 8.91380068,14.2755361 C8.91380068,13.7136281 9.40553627,13.2453085 9.99553966,13.2453085 C10.5856041,13.2453085 11.0773092,13.7136281 11.0773092,14.2755361 C11.0773092,14.8375022 10.5856041,15.3057637 9.99553966,15.3057637 M7.29822441,6.74281937 C6.70816,6.74281937 6.21648542,6.27452881 6.21648542,5.71259177 C6.21648542,5.15065472 6.70816,4.68236416 7.29822441,4.68236416 C7.88825831,4.68236416 8.37996339,5.15065472 8.37996339,5.71259177 C8.37996339,6.27452881 7.88825831,6.74281937 7.29822441,6.74281937 M12.6928854,3.99999128 C11.6954414,3.99999128 10.8946854,4.76264504 10.8946854,5.71259177 C10.8946854,6.34144407 11.2599329,6.88998644 11.7937702,7.18434964 C11.7937702,7.18434964 11.8799566,8.08577337 11.7937702,8.28149249 C11.7075837,8.47718257 10.1750515,9.99406392 9.99553966,9.99406392 C9.81605831,9.99406392 8.30231932,8.50708087 8.19733966,8.28149249 C8.09232949,8.05587506 8.19733966,7.18434964 8.19733966,7.18434964 C8.73117695,6.88998644 9.09645492,6.34144407 9.09645492,5.71259177 C9.09645492,4.76264504 8.29566847,3.99999128 7.29822441,3.99999128 C6.30078034,3.99999128 5.4999939,4.76264504 5.4999939,5.71259177 C5.4999939,6.34144407 5.86527186,6.88998644 6.39910915,7.18434964 C6.39910915,7.18434964 6.30758373,8.49171041 6.39910915,8.70962809 C6.49063458,8.92754576 9.00224475,11.0144707 9.09645492,11.2785288 C9.19063458,11.5425579 9.09645492,12.8037782 9.09645492,12.8037782 C8.56258712,13.0981414 8.19733966,13.6467128 8.19733966,14.2755361 C8.19733966,15.2255119 8.9981261,15.9881366 9.99553966,15.9881366 C10.9930142,15.9881366 11.7937702,15.2255119 11.7937702,14.2755361 C11.7937702,13.6467128 11.4285227,13.0981414 10.8946854,12.8037782 C10.8946854,12.8037782 10.7834515,11.5229453 10.8946854,11.2785288 C11.0058888,11.0340833 13.5238753,8.92754576 13.5920007,8.70962809 C13.6601261,8.49171041 13.5920007,7.18434964 13.5920007,7.18434964 C14.1258685,6.88998644 14.4911159,6.34144407 14.4911159,5.71259177 C14.4911159,4.76264504 13.6903295,3.99999128 12.6928854,3.99999128" id="Fill-1" fill="#000000"></path>
                    </g>
                </g>
            </g>
        </g>
    </g>
</svg>